<?xml version="1.0" encoding="UTF-8" standalone="no"?>
<svg
   version="1.1"
   id="Layer_1"
   x="0px"
   y="0px"
   width="100%"
   viewBox="0 0 608 608"
   enable-background="new 0 0 608 608"
   xml:space="preserve"
   sodipodi:docname="logo.svg"
   inkscape:version="1.4.3 (0d15f75, 2025-12-25)"
   xmlns:inkscape="http://www.inkscape.org/namespaces/inkscape"
   xmlns:sodipodi="http://sodipodi.sourceforge.net/DTD/sodipodi-0.dtd"
   xmlns="http://www.w3.org/2000/svg"
   xmlns:svg="http://www.w3.org/2000/svg"><defs
   id="defs9"><filter
     inkscape:collect="always"
     style="color-interpolation-filters:sRGB"
     id="filter14"
     x="-0.044394376"
     y="-0.043806515"
     width="1.0887888"
     height="1.087613"><feGaussianBlur
       inkscape:collect="always"
       stdDeviation="0.95826392"
       id="feGaussianBlur14" /></filter><filter
     inkscape:collect="always"
     style="color-interpolation-filters:sRGB"
     id="filter15"
     x="-0.25127616"
     y="-0.25127614"
     width="1.5025523"
     height="1.5025523"><feGaussianBlur
       inkscape:collect="always"
       stdDeviation="2.6948534"
       id="feGaussianBlur15" /></filter><filter
     inkscape:collect="always"
     style="color-interpolation-filters:sRGB"
     id="filter16"
     x="-0.014207866"
     y="-0.014147649"
     width="1.0284157"
     height="1.0282953"><feGaussianBlur
       inkscape:collect="always"
       stdDeviation="0.23926987"
       id="feGaussianBlur16" /></filter><filter
     inkscape:collect="always"
     style="color-interpolation-filters:sRGB"
     id="filter17"
     x="-0.0015316699"
     y="-0.0015056262"
     width="1.0030633"
     height="1.0030113"><feGaussianBlur
       inkscape:collect="always"
       stdDeviation="0.015498345"
       id="feGaussianBlur17" /></filter><filter
     inkscape:collect="always"
     style="color-interpolation-filters:sRGB"
     id="filter18"
     x="-0.022436662"
     y="-0.022436662"
     width="1.0448733"
     height="1.0448733"><feGaussianBlur
       inkscape:collect="always"
       stdDeviation="0.27152847"
       id="feGaussianBlur18" /></filter></defs><sodipodi:namedview
   id="namedview9"
   pagecolor="#505050"
   bordercolor="#eeeeee"
   borderopacity="1"
   inkscape:showpageshadow="0"
   inkscape:pageopacity="0"
   inkscape:pagecheckerboard="0"
   inkscape:deskcolor="#505050"
   inkscape:zoom="0.80921053"
   inkscape:cx="304"
   inkscape:cy="304"
   inkscape:window-width="1366"
   inkscape:window-height="705"
   inkscape:window-x="-8"
   inkscape:window-y="-8"
   inkscape:window-maximized="1"
   inkscape:current-layer="Layer_1" />
<path
   fill="#000000"
   opacity="1"
   stroke="none"
   d="m 294.55754,527.94248 c -21.52541,-31.29021 -49.76989,-50.5494 -80.15659,-65.96137 -46.8595,-23.76693 -96.19889,-37.23179 -146.499456,-46.31193 -16.871709,-3.0457 -33.829463,-5.44378 -50.464074,-8.09268 -1.171574,-3.24338 0.242003,-5.17873 1.223245,-7.15699 29.863874,-60.20785 59.825134,-120.35039 89.514085,-180.67519 2.93073,-5.95503 6.1819,-7.75973 11.63527,-6.24966 11.46301,3.17432 23.12625,5.54299 34.73828,12.27437 -4.23819,3.68285 -7.98583,2.22623 -11.39664,1.67792 -23.48328,-3.77529 -23.40203,-3.8016 -33.59799,20.98459 -17.049303,41.44658 -34.208275,82.83189 -51.29942,124.25516 -1.075527,2.60676 -1.963792,5.31863 -3.382157,9.19106 13.359063,2.13733 25.977414,4.0506 38.567593,6.18933 47.663704,8.09686 94.387454,20.35977 137.972244,45.16172 29.46187,16.76528 55.80432,38.11424 71.55297,73.48974 30.62905,-60.3248 82.02178,-82.26361 135.07451,-100.64518 35.40713,-12.26773 71.94718,-18.18296 108.55445,-23.27598 1.22535,-0.17045 2.44782,-0.36889 3.4791,-0.52509 1.93295,-3.51535 0.0231,-6.01214 -0.91465,-8.56208 -17.82317,-48.464 -35.77998,-96.8617 -53.44354,-145.40454 -2.6177,-7.19377 -5.73469,-9.42546 -12.67258,-8.11872 -32.21765,6.06846 -63.80585,14.98733 -94.90328,26.41945 -1.84077,0.67676 -3.6958,1.99364 -6.38575,-0.0331 4.45476,-4.88537 9.85021,-7.35483 14.85592,-10.33606 29.07802,-17.31779 60.14893,-27.24851 92.19263,-33.61746 6.41435,-1.27494 10.09314,0.9387 13.21767,7.87449 28.08681,62.34658 56.48856,124.50024 84.73761,186.74763 1.36671,3.01169 3.18794,6.01733 2.76446,10.48531 -14.07681,2.07304 -28.07133,3.74947 -41.95764,6.24524 -61.1077,10.9827 -121.15128,26.36516 -176.57419,60.0662 -25.86089,15.72516 -48.9994,35.29806 -65.35758,64.222 -0.3856,0.68179 -1.16347,1.06186 -2.0578,1.84485 -4.32141,-2.42378 -5.66954,-7.93803 -9.0167,-12.16295 z"
   id="path1"
   style="fill:#ffffff;fill-opacity:1;stroke-width:1.63855" />
<path
   fill="#000000"
   opacity="1"
   stroke="none"
   d="m 311.43559,264.97398 c -7.38,-0.0833 -7.40222,-0.0833 -7.40775,-6.84588 -0.0108,-13.32215 0.13273,-26.6462 -0.0648,-39.96535 -0.0613,-4.13586 1.37631,-5.58911 5.4642,-5.55302 13.82031,0.12204 27.64377,0.0798 41.46374,-0.0876 3.75162,-0.0454 4.88819,1.44531 4.85282,5.04193 -0.13919,14.15344 -0.1976,28.31114 0.0203,42.46254 0.0646,4.1932 -1.7316,5.02899 -5.3721,4.99325 -12.82135,-0.12591 -25.64468,-0.0475 -38.95645,-0.0458 z"
   id="path2"
   style="fill:#f1f71c;fill-opacity:0.929412;filter:url(#filter14)"
   transform="matrix(1.45548,0,0,1.6719234,-155.22928,-209.96441)" />

<path
   fill="#000000"
   opacity="1"
   stroke="none"
   d="m 334.53699,295.5355 c 4.83493,-0.46655 6.33619,1.5643 6.25644,5.82801 -0.18359,9.81466 -0.14065,19.6372 0.0257,29.45291 0.065,3.83841 -1.27728,5.32159 -5.23245,5.23993 -9.98053,-0.20618 -19.97068,-0.19284 -29.95191,-0.002 -3.94211,0.0754 -5.25961,-1.42608 -5.19705,-5.26825 0.16251,-9.98202 0.16318,-19.9711 -0.0311,-29.9523 -0.0755,-3.8753 1.345,-5.41046 5.20142,-5.35855 9.48388,0.12763 18.97058,0.0491 28.92901,0.0602 z"
   id="path4"
   style="fill:#f1f71c;fill-opacity:0.929412;filter:url(#filter16)"
   transform="matrix(1.45548,0,0,1.6719234,-155.22928,-209.96441)" />
<path
   fill="#000000"
   opacity="1"
   stroke="none"
   d="m 426.06013,467.65826 c 31.20497,-13.05946 62.90717,-20.45074 94.91617,-26.19187 4.97619,-0.89252 14.55622,11.81721 13.45604,17.91347 -0.69852,3.87064 -3.58257,2.99192 -5.74845,3.35818 -25.51168,4.31434 -50.87117,9.65732 -75.89959,17.07297 -34.66237,10.26993 -68.69616,22.81362 -100.5702,42.7233 -8.53899,5.33369 -16.83317,11.22243 -24.52607,18.27122 -1.3807,1.26512 -2.52742,3.57835 -6.36391,1.39788 29.53768,-36.77142 65.5273,-58.24325 104.73601,-74.54515 z"
   id="path5"
   style="fill:#f1f71c;fill-opacity:0.929412;stroke-width:1.55011" />
<path
   fill="#000000"
   opacity="1"
   stroke="none"
   d="m 126.06798,445.95609 c 38.82441,10.6223 76.02903,24.56706 110.41416,48.09637 15.83562,10.83619 30.91709,22.92939 43.78972,38.70214 1.70157,2.08488 4.35865,3.58237 4.20587,7.34296 -2.11097,1.09212 -3.27547,-0.82447 -4.52952,-1.8907 -33.14601,-28.18252 -70.7687,-43.53874 -109.2707,-56.19124 -31.69551,-10.41567 -63.84444,-18.24874 -96.457662,-23.08114 -3.154841,-0.46753 -4.868983,-1.62304 -3.743029,-6.13259 3.199783,-12.81557 6.924414,-16.10038 17.695308,-14.19182 12.455083,2.207 24.862953,4.809 37.895853,7.34602 z"
   id="path6"
   style="fill:#f1f71c;fill-opacity:0.929412;stroke-width:1.57925" />


<path
   fill="#000000"
   opacity="1"
   stroke="none"
   d="m 250.25426,346.84193 c -4.09649,0.41196 -5.6083,-1.11102 -5.46539,-4.81521 0.19824,-5.13782 0.0983,-10.28931 0.0383,-15.43393 -0.0321,-2.7533 0.81759,-4.42707 3.94481,-4.38944 6.62393,0.0797 13.24951,0.0243 20.29233,0.0243 0,8.19672 0,16.0452 0,24.61588 -6.17041,0 -12.24808,0 -18.81,-0.002 z"
   id="path9"
   style="fill:#f1f71c;fill-opacity:0.929412;filter:url(#filter17)"
   transform="matrix(1.45548,0,0,1.6719234,-155.22928,-209.96441)" />
<rect
   style="fill:#f1f71c;fill-opacity:0.929412;stroke:#220b28;stroke-width:0.405377;filter:url(#filter15)"
   id="rect9"
   width="26.545839"
   height="26.545841"
   x="348.19052"
   y="162.82465"
   rx="129.73834"
   ry="0"
   transform="matrix(1.45548,0,0,1.6719234,-155.22928,-209.96441)" /><rect
   style="fill:#f1f81c;fill-opacity:0.926625;stroke:#220b28;stroke-width:0.759236;filter:url(#filter18)"
   id="rect11"
   width="45.96434"
   height="45.96434"
   x="230.9688"
   y="243.32651"
   rx="47.289429"
   ry="0"
   transform="matrix(1.45548,0,0,1.6719234,-155.22928,-209.96441)" /></svg>
