<?xml version="1.0" encoding="UTF-8" standalone="no"?>
<svg
   viewBox="0 0 640 640"
   version="1.1"
   id="svg1"
   sodipodi:docname="categories.svg"
   inkscape:version="1.4.3 (0d15f75, 2025-12-25)"
   xmlns:inkscape="http://www.inkscape.org/namespaces/inkscape"
   xmlns:sodipodi="http://sodipodi.sourceforge.net/DTD/sodipodi-0.dtd"
   xmlns="http://www.w3.org/2000/svg"
   xmlns:svg="http://www.w3.org/2000/svg">
  <defs
     id="defs1" />
  <sodipodi:namedview
     id="namedview1"
     pagecolor="#505050"
     bordercolor="#eeeeee"
     borderopacity="1"
     inkscape:showpageshadow="0"
     inkscape:pageopacity="0"
     inkscape:pagecheckerboard="0"
     inkscape:deskcolor="#505050"
     inkscape:zoom="0.76875"
     inkscape:cx="320"
     inkscape:cy="320"
     inkscape:window-width="1366"
     inkscape:window-height="705"
     inkscape:window-x="-8"
     inkscape:window-y="-8"
     inkscape:window-maximized="1"
     inkscape:current-layer="svg1" />
  <!--!Font Awesome Free 7.2.0 by @fontawesome - https://fontawesome.com License - https://fontawesome.com/license/free Copyright 2026 Fonticons, Inc.-->
  <path
     d="M 281.41464,4.1626016 V 83.284553 c 0,10.879269 8.82805,19.780487 19.61788,19.780487 h 39.23578 c 10.78983,0 19.61788,-8.901218 19.61788,-19.780487 V 4.1626016 h 39.23577 c 43.28197,0 78.47155,35.4812504 78.47155,79.1219514 V 241.52845 c 0,6.79955 -0.85828,13.47546 -2.45224,19.78049 h -308.9817 c -1.59396,-6.30503 -2.45224,-12.98094 -2.45224,-19.78049 V 83.284553 c 0,-43.640701 35.18958,-79.1219514 78.47154,-79.1219514 z M 399.12195,637.13821 c -13.73252,0 -26.72937,-3.58521 -38.00965,-9.89024 11.64812,-20.39863 18.39177,-44.01159 18.39177,-69.23171 v -158.2439 c 0,-25.22013 -6.74365,-48.83308 -18.39177,-69.23171 11.28028,-6.30503 24.15452,-9.89025 38.00965,-9.89025 h 39.23578 v 79.12196 c 0,10.87926 8.82804,19.78048 19.61788,19.78048 h 39.23577 c 10.78984,0 19.61789,-8.90122 19.61789,-19.78048 V 320.6504 h 39.23577 c 43.28196,0 78.47155,35.48125 78.47155,79.12196 v 158.2439 c 0,43.6407 -35.18959,79.12195 -78.47155,79.12195 z M 6.7642276,399.77236 c 0,-43.64071 35.1895834,-79.12196 78.4715454,-79.12196 h 39.235777 v 79.12196 c 0,10.87926 8.82805,19.78048 19.61788,19.78048 h 39.23578 c 10.78983,0 19.61788,-8.90122 19.61788,-19.78048 V 320.6504 h 39.23577 c 43.28197,0 78.47155,35.48125 78.47155,79.12196 v 158.2439 c 0,43.6407 -35.18958,79.12195 -78.47155,79.12195 H 85.235773 c -43.281962,0 -78.4715454,-35.48125 -78.4715454,-79.12195 z"
     id="path1"
     style="fill:#ffffff;stroke-width:1.23119" />
</svg>
