<?xml version="1.0" encoding="UTF-8" standalone="no"?>
<svg
   viewBox="0 0 640 640"
   version="1.1"
   id="svg1"
   sodipodi:docname="house.svg"
   inkscape:version="1.4.3 (0d15f75, 2025-12-25)"
   xmlns:inkscape="http://www.inkscape.org/namespaces/inkscape"
   xmlns:sodipodi="http://sodipodi.sourceforge.net/DTD/sodipodi-0.dtd"
   xmlns="http://www.w3.org/2000/svg"
   xmlns:svg="http://www.w3.org/2000/svg">
  <defs
     id="defs1" />
  <sodipodi:namedview
     id="namedview1"
     pagecolor="#505050"
     bordercolor="#eeeeee"
     borderopacity="1"
     inkscape:showpageshadow="0"
     inkscape:pageopacity="0"
     inkscape:pagecheckerboard="0"
     inkscape:deskcolor="#505050"
     inkscape:zoom="0.76875"
     inkscape:cx="320"
     inkscape:cy="320"
     inkscape:window-width="1366"
     inkscape:window-height="705"
     inkscape:window-x="-8"
     inkscape:window-y="-8"
     inkscape:window-maximized="1"
     inkscape:current-layer="svg1" />
  <!--!Font Awesome Free 7.2.0 by @fontawesome - https://fontawesome.com License - https://fontawesome.com/license/free Copyright 2026 Fonticons, Inc.-->
  <path
     d="m 347.47987,16.018636 c -15.14425,-14.0069614 -38.53781,-14.0069614 -53.55893,0 L 18.123278,271.58426 c -11.819901,11.05813 -15.7598675,28.1368 -9.8499177,43.1267 5.9099507,14.98991 20.3154537,24.94222 36.5678147,24.94222 h 19.699838 v 216.24784 c 0,43.37243 35.336572,78.63557 78.799327,78.63557 h 354.597 c 43.46276,0 78.79934,-35.26314 78.79934,-78.63557 V 339.65318 h 19.69982 c 16.25237,0 30.78101,-9.95231 36.69095,-24.94222 5.90995,-14.9899 1.96998,-32.19144 -9.84992,-43.1267 z M 300.93902,398.62987 h 39.39966 c 32.62785,0 59.09949,26.41664 59.09949,58.97668 V 575.55991 H 241.83951 V 457.60655 c 0,-32.56004 26.47165,-58.97668 59.09951,-58.97668 z"
     id="path1"
     style="fill:#ffffff;stroke-width:1.22997" />
</svg>
