<?xml version="1.0" encoding="UTF-8" standalone="no"?>
<svg
   viewBox="0 0 640 640"
   version="1.1"
   id="svg1"
   sodipodi:docname="profile.svg"
   inkscape:version="1.4.3 (0d15f75, 2025-12-25)"
   xmlns:inkscape="http://www.inkscape.org/namespaces/inkscape"
   xmlns:sodipodi="http://sodipodi.sourceforge.net/DTD/sodipodi-0.dtd"
   xmlns="http://www.w3.org/2000/svg"
   xmlns:svg="http://www.w3.org/2000/svg">
  <defs
     id="defs1" />
  <sodipodi:namedview
     id="namedview1"
     pagecolor="#505050"
     bordercolor="#eeeeee"
     borderopacity="1"
     inkscape:showpageshadow="0"
     inkscape:pageopacity="0"
     inkscape:pagecheckerboard="0"
     inkscape:deskcolor="#505050"
     showguides="true"
     inkscape:zoom="0.76875"
     inkscape:cx="320"
     inkscape:cy="320"
     inkscape:window-width="1366"
     inkscape:window-height="705"
     inkscape:window-x="-8"
     inkscape:window-y="-8"
     inkscape:window-maximized="1"
     inkscape:current-layer="svg1" />
  <!--!Font Awesome Free 7.2.0 by @fontawesome - https://fontawesome.com License - https://fontawesome.com/license/free Copyright 2026 Fonticons, Inc.-->
  <path
     d="m 75.042462,71.284553 c -38.807683,0 -70.3595354,31.783337 -70.3595354,70.875727 v 354.37863 c 0,39.09239 31.5518524,70.87572 70.3595354,70.87572 H 567.55916 c 38.80769,0 70.35953,-31.78333 70.35953,-70.87572 V 142.16028 c 0,-39.09239 -31.55184,-70.875727 -70.35953,-70.875727 z M 162.99187,354.78746 h 70.35952 c 48.59205,0 87.94942,39.64611 87.94942,88.59465 0,9.74541 -7.91546,17.71894 -17.58989,17.71894 H 92.632339 c -9.674432,0 -17.589877,-7.97353 -17.589877,-17.71894 0,-48.94854 39.357348,-88.59465 87.949408,-88.59465 z M 136.60704,248.47387 c 0,-34.2197 27.59413,-62.01626 61.56459,-62.01626 33.97046,0 61.56459,27.79656 61.56459,62.01626 0,34.21969 -27.59413,62.01626 -61.56459,62.01626 -33.97046,0 -61.56459,-27.79657 -61.56459,-62.01626 z m 263.84824,-53.1568 h 123.12918 c 14.62158,0 26.38482,11.84953 26.38482,26.5784 0,14.72885 -11.76324,26.5784 -26.38482,26.5784 H 400.45528 c -14.6216,0 -26.38482,-11.84955 -26.38482,-26.5784 0,-14.72887 11.76322,-26.5784 26.38482,-26.5784 z m 0,106.31359 h 123.12918 c 14.62158,0 26.38482,11.84953 26.38482,26.5784 0,14.72885 -11.76324,26.5784 -26.38482,26.5784 H 400.45528 c -14.6216,0 -26.38482,-11.84955 -26.38482,-26.5784 0,-14.72887 11.76322,-26.5784 26.38482,-26.5784 z"
     id="path1"
     style="fill:#ffffff;stroke-width:1.1033;stroke-dasharray:none" />
</svg>
